# xmcd
#
# Track frame offsets: 
#        150
#        9965
#        20402
#        34550
#        44890
#        61352
#        71900
#        90140
#        107647
#        118912
#        133990
#        154660
#        165162
#        178872
#        193210
#        207830
#        216770
#        236717
#        244675
#        257117
#
# Disc length: 3624 seconds
#
# Revision: 2
# Processed by: cddbd v1.5.2PL0 Copyright (c) Steve Scherf et al.
# Submitted via: ExactAudioCopy v0.90b4
#
DISCID=1b0e2614
DTITLE=K. D. Lang - Reintarnation
DYEAR=2006
DGENRE=Country
TTITLE0=Pay Dirt
TTITLE1=Don't Let The Stars Get In Your Eyes
TTITLE2=Big Boned Gal
TTITLE3=Don't Be A Lemming Polka
TTITLE4=Curious Soul Astray
TTITLE5=It's Me
TTITLE6=Luck In My Eyes
TTITLE7=Diet Of Strange Places
TTITLE8=Big Big Love
TTITLE9=Trail Of Broken Hearts
TTITLE10=Nowhere To Stand
TTITLE11=Friday Dance Promenade
TTITLE12=Got The Bull By The Horns
TTITLE13=Angel With A Lariat
TTITLE14=Pine And Stew
TTITLE15=Hanky Panky
TTITLE16=Pullin' Back The Reins
TTITLE17=Cowgirl Pride
TTITLE18=Changed My Mind (Previously Unissued)
TTITLE19=Turn Me Round
EXTD=Originally Released March 14, 2006\nAmazon.com shows April 25, 20
EXTD=06\n\nAMG EXPERT REVIEW: N/A\n\nAmazon.com Editorial Review\nSome
EXTD=k.d. lang fans argue that the Alberta-born crooner released her 
EXTD=best work during the first 10 years of her career. Dressed in lay
EXTD=ers of thrift store finery, with stage moves that recalled the Ta
EXTD=smanian Devil, lang's quirky 'cow-punk' style made an unforgettab
EXTD=le first impression. Sassy antics aside, her appeal was cross-gen
EXTD=erational, blowing audiences away night after night with an incre
EXTD=dible voice and commanding presence. Lang's new release Reintarna
EXTD=tionis a best-of anthology of her independent music from this per
EXTD=iod--from her self-released single, 1983's "Friday Dance Promenad
EXTD=e" to material from 1989's Absolute Torch and Twang--as well as a
EXTD=smattering of lesser-known numbers from the Even Cowgirls Get Th
EXTD=e Blues soundtrack. The 20-song collection does a great job of mi
EXTD=xing some of lang's hoe-down favourites ("Turn Me Round," "Hanky 
EXTD=Panky," "Big Boned Gal") with gorgeous, open-throated ballads tha
EXTD=t showcase her singing and songwriting skills (with the help of c
EXTD=o-producer/co-writer Ben Mink). Her performances in late '80s son
EXTD=gs like "Diet of Strange Places," "Trail of Broken Hearts" and "P
EXTD=ullin' Back the Reins" were a preview of the vocal deftness that 
EXTD=later launched her into superstardom, most notably via her moving
EXTD=cover of Roy Orbison's "Crying" years later. \n\nWhile one would
EXTD=hope for a handful of previously-unreleased tracks on this retro
EXTD=spective, alas, there's just one: a pleasant but harmless track c
EXTD=alled "Change My Mind" which was dropped 20 years ago, but later 
EXTD=completed and recorded for this collection. The shortage of as-ye
EXTD=t-unheard material is the only disappointment from this worthwhil
EXTD=e collection. --Denise Sheppard \n\nHalf.com Details \nProducer: 
EXTD=Ben Mink (Compilation) \n\nAlbum Notes\nRecording information: 19
EXTD=84 - 1993
EXTT0=
EXTT1=
EXTT2=
EXTT3=
EXTT4=
EXTT5=
EXTT6=
EXTT7=
EXTT8=
EXTT9=
EXTT10=
EXTT11=
EXTT12=
EXTT13=
EXTT14=
EXTT15=
EXTT16=
EXTT17=
EXTT18=
EXTT19=
PLAYORDER=
